<?xml version="1.0" encoding="utf-8"?>
<!-- Generator: Adobe Illustrator 24.0.1, SVG Export Plug-In . SVG Version: 6.00 Build 0)  -->
<svg version="1.1" id="Layer_1" xmlns="http://www.w3.org/2000/svg" xmlns:xlink="http://www.w3.org/1999/xlink" x="0px" y="0px"
	 viewBox="0 0 406.6 367.3" style="enable-background:new 0 0 406.6 367.3;" xml:space="preserve">
<style type="text/css">
	.st0{display:none;stroke:#000000;stroke-miterlimit:10;}
	.st1{enable-background:new    ;}
	.st2{fill:#FFFFFF;}
	.st3{display:none;fill:#FFFFFF;enable-background:new    ;}
	.st4{font-family:'Montserrat-Regular';}
	.st5{font-size:31.26px;}
	.st6{display:none;enable-background:new    ;}
	.st7{display:inline;fill:none;stroke:#FFFFFF;stroke-width:2;stroke-miterlimit:10;}
	.st8{display:inline;fill:#FFFFFF;}
	.st9{display:none;fill:none;stroke:#FFFFFF;stroke-width:2;stroke-miterlimit:10;}
	.st10{fill:#FFFFFF;stroke:#FFFFFF;stroke-width:2;stroke-miterlimit:10;}
</style>
<title>2سشsftdrdي2شAsset 7Logo</title>
<g id="Layer_2_1_">
	<g id="Layer_1-2">
		<rect x="-39.6" y="-94" class="st0" width="458" height="500"/>
		<g class="st1">
			<path class="st2" d="M17.3,306.1c-4.6-2.4-8.2-5.8-10.8-10.1c-2.6-4.3-3.9-9.1-3.9-14.5c0-5.4,1.3-10.2,3.9-14.5
				c2.6-4.3,6.2-7.7,10.8-10.1c4.6-2.4,9.7-3.6,15.5-3.6s10.9,1.2,15.5,3.6c4.6,2.4,8.2,5.8,10.8,10.1c2.6,4.3,3.9,9.1,3.9,14.5
				c0,5.4-1.3,10.2-3.9,14.5c-2.6,4.3-6.2,7.7-10.8,10.1c-4.6,2.4-9.7,3.6-15.5,3.6S21.9,308.5,17.3,306.1z M40.2,295.1
				c2.2-1.3,4-3.1,5.3-5.5c1.3-2.4,1.9-5.1,1.9-8.1c0-3-0.6-5.8-1.9-8.1c-1.3-2.4-3.1-4.2-5.3-5.5c-2.2-1.3-4.7-1.9-7.4-1.9
				c-2.7,0-5.2,0.6-7.4,1.9c-2.2,1.3-4,3.1-5.3,5.5c-1.3,2.4-1.9,5.1-1.9,8.1c0,3.1,0.6,5.8,1.9,8.1c1.3,2.4,3,4.2,5.3,5.5
				c2.2,1.3,4.7,1.9,7.4,1.9C35.5,297,38,296.4,40.2,295.1z"/>
		</g>
		<g class="st1">
			<path class="st2" d="M82.9,306.1c-4.5-2.4-8.1-5.8-10.7-10c-2.6-4.3-3.9-9.2-3.9-14.6s1.3-10.3,3.9-14.6c2.6-4.3,6.1-7.6,10.7-10
				c4.5-2.4,9.6-3.6,15.3-3.6c5,0,9.4,0.9,13.4,2.6c4,1.8,7.3,4.3,9.9,7.6l-9.8,8.8c-3.5-4.2-7.8-6.4-12.8-6.4
				c-2.9,0-5.6,0.6-7.9,1.9c-2.3,1.3-4.1,3.1-5.4,5.5c-1.3,2.4-1.9,5.1-1.9,8.1c0,3.1,0.6,5.8,1.9,8.1c1.3,2.4,3,4.2,5.4,5.5
				c2.3,1.3,4.9,1.9,7.9,1.9c5,0,9.3-2.1,12.8-6.4l9.8,8.8c-2.6,3.3-5.9,5.8-9.9,7.6c-4,1.8-8.5,2.6-13.4,2.6
				C92.6,309.7,87.5,308.5,82.9,306.1z"/>
		</g>
		<g class="st1">
			<path class="st2" d="M140.1,266.5h-16.7v-12.2H172v12.2h-16.6v42.1h-15.4V266.5z"/>
		</g>
		<g class="st1">
			<path class="st2" d="M190.3,306.1c-4.6-2.4-8.2-5.8-10.8-10.1c-2.6-4.3-3.9-9.1-3.9-14.5c0-5.4,1.3-10.2,3.9-14.5
				c2.6-4.3,6.2-7.7,10.8-10.1c4.6-2.4,9.7-3.6,15.5-3.6c5.7,0,10.9,1.2,15.5,3.6c4.6,2.4,8.2,5.8,10.8,10.1
				c2.6,4.3,3.9,9.1,3.9,14.5c0,5.4-1.3,10.2-3.9,14.5c-2.6,4.3-6.2,7.7-10.8,10.1c-4.6,2.4-9.7,3.6-15.5,3.6
				C200.1,309.7,194.9,308.5,190.3,306.1z M213.3,295.1c2.2-1.3,4-3.1,5.3-5.5c1.3-2.4,1.9-5.1,1.9-8.1c0-3-0.6-5.8-1.9-8.1
				c-1.3-2.4-3.1-4.2-5.3-5.5c-2.2-1.3-4.7-1.9-7.4-1.9c-2.7,0-5.2,0.6-7.4,1.9c-2.2,1.3-4,3.1-5.3,5.5c-1.3,2.4-1.9,5.1-1.9,8.1
				c0,3.1,0.6,5.8,1.9,8.1c1.3,2.4,3,4.2,5.3,5.5c2.2,1.3,4.7,1.9,7.4,1.9C208.6,297,211,296.4,213.3,295.1z"/>
		</g>
		<g class="st1">
			<path class="st2" d="M281.8,256.8c3.6,1.6,6.4,4,8.4,7s2.9,6.6,2.9,10.7s-1,7.6-2.9,10.6c-2,3-4.8,5.3-8.4,6.9
				c-3.6,1.6-7.9,2.4-12.8,2.4h-9.5v14.2h-15.4v-54.3H269C273.9,254.3,278.2,255.2,281.8,256.8z M275.2,280.3
				c1.6-1.4,2.4-3.3,2.4-5.9s-0.8-4.5-2.4-5.9c-1.6-1.4-4-2.1-7.1-2.1h-8.5v15.9h8.5C271.2,282.3,273.6,281.7,275.2,280.3z"/>
		</g>
		<g class="st1">
			<path class="st2" d="M306.5,303.1c-4.5-4.4-6.7-10.6-6.7-18.7v-30.1h15.4V284c0,8.7,3.4,13,10.3,13c6.8,0,10.2-4.3,10.2-13v-29.6
				h15.1v30.1c0,8.1-2.2,14.3-6.7,18.7c-4.5,4.4-10.7,6.6-18.8,6.6S311,307.5,306.5,303.1z"/>
			<path class="st2" d="M367.5,308.1c-4.1-1.1-7.5-2.5-10.1-4.3l5-11.3c2.4,1.6,5.2,2.9,8.5,3.9c3.2,1,6.4,1.5,9.5,1.5
				c5.9,0,8.8-1.5,8.8-4.4c0-1.6-0.8-2.7-2.5-3.5c-1.7-0.7-4.4-1.5-8.1-2.4c-4.1-0.9-7.5-1.8-10.2-2.8c-2.7-1-5.1-2.6-7.1-4.8
				c-2-2.2-2.9-5.2-2.9-9c0-3.3,0.9-6.3,2.7-9c1.8-2.7,4.5-4.8,8.1-6.3c3.6-1.6,8-2.3,13.2-2.3c3.6,0,7.1,0.4,10.5,1.2
				c3.5,0.8,6.5,2,9.2,3.5l-4.7,11.4c-5.2-2.8-10.2-4.2-15-4.2c-3.1,0-5.3,0.5-6.7,1.4c-1.4,0.9-2.1,2.1-2.1,3.5s0.8,2.5,2.5,3.3
				c1.7,0.7,4.3,1.5,8,2.2c4.1,0.9,7.6,1.8,10.3,2.8c2.7,1,5.1,2.6,7.1,4.8c2,2.2,3,5.2,3,9c0,3.3-0.9,6.2-2.7,8.8s-4.5,4.7-8.1,6.3
				c-3.6,1.6-8,2.4-13.2,2.4C375.9,309.7,371.6,309.2,367.5,308.1z"/>
		</g>
		<text transform="matrix(1 0 0 1 79.13 358.09)" class="st3 st4 st5">E</text>
		<g class="st6">
			<path class="st7" d="M98.2,356.1v2H82.7v-21.9h15v2H85v7.8h11.3v2H85v8.1H98.2z"/>
		</g>
		<g class="st6">
			<path class="st7" d="M127.7,336.2l-9.7,21.9h-2.3l-9.7-21.9h2.5l8.4,19l8.4-19H127.7z"/>
		</g>
		<g class="st6">
			<path class="st7" d="M152.6,356.1v2h-15.5v-21.9h15v2h-12.7v7.8h11.3v2h-11.3v8.1H152.6z"/>
		</g>
		<g class="st6">
			<path class="st7" d="M164.3,336.2h2.3v19.9h12.3v2h-14.6V336.2z"/>
		</g>
		<g class="st6">
			<path class="st7" d="M192.2,356.8c-1.8-1-3.1-2.3-4.1-4c-1-1.7-1.5-3.6-1.5-5.7c0-2.1,0.5-4,1.5-5.7c1-1.7,2.4-3,4.1-4
				c1.8-1,3.7-1.5,5.9-1.5c2.2,0,4.1,0.5,5.9,1.4c1.7,1,3.1,2.3,4.1,4c1,1.7,1.5,3.6,1.5,5.7c0,2.1-0.5,4-1.5,5.7
				c-1,1.7-2.4,3-4.1,4c-1.7,1-3.7,1.4-5.9,1.4C195.9,358.3,194,357.8,192.2,356.8z M202.8,355c1.4-0.8,2.5-1.9,3.3-3.3
				s1.2-2.9,1.2-4.6c0-1.7-0.4-3.3-1.2-4.6s-1.9-2.5-3.3-3.3c-1.4-0.8-3-1.2-4.7-1.2c-1.7,0-3.3,0.4-4.7,1.2
				c-1.4,0.8-2.5,1.9-3.3,3.3s-1.2,2.9-1.2,4.6c0,1.7,0.4,3.3,1.2,4.6s1.9,2.5,3.3,3.3c1.4,0.8,3,1.2,4.7,1.2
				C199.8,356.2,201.4,355.8,202.8,355z"/>
		</g>
		<g class="st6">
			<path class="st7" d="M235.8,338.2c1.6,1.3,2.4,3.2,2.4,5.5c0,2.3-0.8,4.2-2.4,5.5c-1.6,1.3-3.8,2-6.6,2h-5.9v6.9H221v-21.9h8.2
				C232,336.2,234.2,336.9,235.8,338.2z M234.1,347.7c1.1-0.9,1.7-2.3,1.7-4c0-1.8-0.6-3.1-1.7-4.1s-2.8-1.4-5-1.4h-5.8v10.9h5.8
				C231.3,349.1,233,348.7,234.1,347.7z"/>
		</g>
		<g class="st6">
			<path class="st8" d="M272.1,336.2v21.9h-2.2v-17.5l-8.6,14.7h-1.1l-8.6-14.6v17.4h-2.2v-21.9h1.9l9.5,16.2l9.4-16.2H272.1z"/>
			<path class="st8" d="M301,356.1v2h-15.5v-21.9h15v2h-12.7v7.8h11.3v2h-11.3v8.1H301z"/>
			<path class="st8" d="M331,336.2v21.9h-1.9L315,340.3v17.8h-2.3v-21.9h1.9l14.1,17.8v-17.8H331z"/>
			<path class="st8" d="M348.6,338.2h-7.7v-2h17.7v2h-7.7v19.9h-2.3V338.2z"/>
		</g>
		<g class="st1">
			<path class="st9" d="M272.1,336.2v21.9h-2.2v-17.5l-8.6,14.7h-1.1l-8.6-14.6v17.4h-2.2v-21.9h1.9l9.5,16.2l9.4-16.2H272.1z"/>
			<path class="st9" d="M301,356.1v2h-15.5v-21.9h15v2h-12.7v7.8h11.3v2h-11.3v8.1H301z"/>
			<path class="st9" d="M331,336.2v21.9h-1.9L315,340.3v17.8h-2.3v-21.9h1.9l14.1,17.8v-17.8H331z"/>
			<path class="st9" d="M348.6,338.2h-7.7v-2h17.7v2h-7.7v19.9h-2.3V338.2z"/>
		</g>
		<circle class="st2" cx="173.8" cy="99.8" r="7.4"/>
		<circle class="st2" cx="234" cy="99.8" r="7.4"/>
		<path class="st2" d="M297.6,18.9c-3.7,0-6.6,3-6.6,6.7v4.5c0,11.6,9.4,21,21,21h5.1c11.6,0,21-9.4,21-21v-7.8c0-11.6-9.4-21-21-21
			h-32.5c-11.6,0-21,9.4-21,21v44.3c0,4.3-3.5,7.7-7.7,7.7h-6.2c0.1-1,0.1-2.1,0.1-3.1V46.5c0-25.7-20.8-46.5-46.5-46.5c0,0,0,0,0,0
			l0,0c-25.7,0-46.5,20.8-46.5,46.5v24.7c0,1.1,0,2.1,0.1,3.1h-6.1c-4.3,0-7.7-3.5-7.7-7.7V22.3c0-11.6-9.5-21-21.1-21H89.5
			c-11.6,0-21,9.4-21,21v7.8c0,11.6,9.4,21,21,21h5.1c11.6,0,21-9.4,21-21v-4.5c0.1-3.7-2.7-6.8-6.4-6.9s-6.8,2.7-6.9,6.4
			c0,0.2,0,0.3,0,0.5v4.5c0,4.3-3.5,7.7-7.7,7.7h-5.1c-4.3,0-7.7-3.5-7.7-7.7v-7.8c0-4.3,3.5-7.7,7.7-7.7h32.5
			c4.3,0,7.7,3.5,7.7,7.7v44.4c0,11.6,9.4,21,21,21h9c0.2,0.4,0.4,0.9,0.5,1.3c2.2-6.9,9.5-10.8,16.4-8.6c6.9,2.2,10.8,9.5,8.6,16.4
			c-2.2,6.9-9.5,10.8-16.4,8.6c-4-1.3-7.2-4.3-8.5-8.3c-9.9,1.9-17,10.6-17,20.6v59.8c0,4.3-3.5,7.7-7.7,7.7h-9.9
			c-4.3,0-7.7-3.5-7.7-7.7V81.1c0-11.6-9.4-21-21-21h-7.5c-11.6,0-21,9.4-21,21v0.3c0,11.6,9.4,21,21,21c3.7,0.1,6.8-2.7,6.9-6.4
			s-2.7-6.8-6.4-6.9c-0.2,0-0.3,0-0.5,0c-4.3,0-7.7-3.5-7.7-7.7v-0.3c0-4.3,3.5-7.7,7.7-7.7H97c4.3,0,7.7,3.5,7.7,7.7v96.4
			c0,11.6,9.4,21,21,21h9.9c11.6,0,21-9.4,21-21v-59.8c0-4.3,3.5-7.7,7.7-7.7h0.3v8c0,0.7,0.1,1.4,0.1,2.1v82c0,4.3-3.5,7.7-7.7,7.7
			H89.5c-4.3,0-7.7-3.5-7.7-7.7v-32.3c0-4.3,3.5-7.7,7.7-7.7c3.7,0.1,6.8-2.7,6.9-6.4c0.1-3.7-2.7-6.8-6.4-6.9c-0.2,0-0.3,0-0.5,0
			c-11.6,0-21,9.4-21,21.1v32.3c0,11.6,9.4,21,21,21h67.7c11.6,0,21-9.4,21-21v-68c1,0.2,2,0.3,2.9,0.3h5.3v82.1
			c0,3.7,3,6.7,6.6,6.7c3.7,0,6.7-3,6.7-6.7v-82.1h6.9v82.1c-0.1,3.7,2.7,6.8,6.4,6.9c3.7,0.1,6.8-2.7,6.9-6.4c0-0.2,0-0.3,0-0.5
			v-82.1h5.3c1,0,2.1-0.1,3.1-0.3v68c0,11.6,9.4,21,21.1,21h67.7c11.6,0,21-9.4,21-21v-32.3c0-11.6-9.4-21-21-21.1
			c-3.7,0.1-6.5,3.2-6.4,6.9c0.1,3.5,2.9,6.3,6.4,6.4c4.3,0,7.7,3.5,7.7,7.7v32.3c0,4.3-3.5,7.7-7.7,7.7h-67.7
			c-4.3,0-7.7-3.5-7.7-7.7v-84c0,0,0-0.1,0-0.1v-8h0.5c4.3,0,7.7,3.5,7.7,7.7v59.8c0,11.6,9.4,21,21,21h9.9c11.6,0,21-9.4,21-21
			V81.1c0-4.3,3.5-7.7,7.7-7.7h7.5c4.3,0,7.7,3.5,7.7,7.7v0.3c0,4.3-3.5,7.7-7.7,7.7c-3.7,0.1-6.5,3.2-6.4,6.9
			c0.1,3.5,2.9,6.3,6.4,6.4c11.6,0,21-9.4,21-21.1v-0.3c0-11.6-9.4-21-21-21h-7.5c-11.6,0-21,9.4-21,21v96.4c0,4.3-3.5,7.7-7.7,7.7
			H271c-4.3,0-7.7-3.5-7.7-7.7v-59.8c0-10.5-7.8-19.4-18.3-20.8c-2.2,6.9-9.5,10.7-16.4,8.6c-6.9-2.2-10.7-9.5-8.6-16.4
			s9.5-10.7,16.4-8.6c4.7,1.5,8.2,5.5,9,10.4c0.5-1,0.9-2.1,1.3-3.2h9.1c11.6,0,21-9.4,21-21V22.3c0-4.3,3.5-7.7,7.7-7.7h32.5
			c4.3,0,7.7,3.5,7.7,7.7v7.8c0,4.3-3.5,7.7-7.7,7.7H312c-4.3,0-7.7-3.5-7.7-7.7v-4.5C304.3,21.9,301.3,18.9,297.6,18.9
			C297.6,18.9,297.6,18.9,297.6,18.9z M202.5,120.9c-10.7,0-13.1-10.2-13.1-10.2h26.3C215.7,110.7,213.2,120.9,202.5,120.9
			L202.5,120.9z"/>
	</g>
</g>
<g>
	<g>
		<path class="st10" d="M50.3,337.2h8.9c2.3,0,4.4,0.5,6.1,1.4c1.8,0.9,3.1,2.2,4.1,3.9c1,1.7,1.5,3.5,1.5,5.7c0,2.1-0.5,4-1.5,5.7
			c-1,1.7-2.4,2.9-4.1,3.9c-1.8,0.9-3.8,1.4-6.1,1.4h-8.9V337.2z M59.1,357.1c1.9,0,3.6-0.4,5-1.1s2.6-1.8,3.3-3.2
			c0.8-1.3,1.2-2.9,1.2-4.6c0-1.8-0.4-3.3-1.2-4.6c-0.8-1.3-1.9-2.4-3.3-3.2c-1.4-0.8-3.1-1.1-5-1.1h-6.5v17.9H59.1z"/>
		<path class="st10" d="M97.8,357.1v2H82.3v-21.9h15v2H84.7v7.8H96v2H84.7v8.1H97.8z"/>
		<path class="st10" d="M127.4,337.2l-9.7,21.9h-2.3l-9.7-21.9h2.5l8.4,19l8.4-19H127.4z"/>
		<path class="st10" d="M152.3,357.1v2h-15.5v-21.9h15v2h-12.7v7.8h11.3v2h-11.3v8.1H152.3z"/>
		<path class="st10" d="M164,337.2h2.3v19.9h12.3v2H164V337.2z"/>
		<path class="st10" d="M191.9,357.8c-1.8-1-3.1-2.3-4.1-4c-1-1.7-1.5-3.6-1.5-5.7c0-2.1,0.5-4,1.5-5.7c1-1.7,2.4-3,4.1-4
			c1.8-1,3.7-1.5,5.9-1.5c2.2,0,4.1,0.5,5.9,1.4c1.7,1,3.1,2.3,4.1,4s1.5,3.6,1.5,5.7c0,2.1-0.5,4-1.5,5.7c-1,1.7-2.4,3-4.1,4
			c-1.7,1-3.7,1.4-5.9,1.4C195.6,359.3,193.6,358.8,191.9,357.8z M202.4,356c1.4-0.8,2.5-1.9,3.3-3.3s1.2-2.9,1.2-4.6
			s-0.4-3.3-1.2-4.6c-0.8-1.4-1.9-2.5-3.3-3.3c-1.4-0.8-3-1.2-4.7-1.2c-1.7,0-3.3,0.4-4.7,1.2s-2.5,1.9-3.3,3.3
			c-0.8,1.4-1.2,2.9-1.2,4.6s0.4,3.3,1.2,4.6s1.9,2.5,3.3,3.3s3,1.2,4.7,1.2C199.5,357.2,201,356.8,202.4,356z"/>
		<path class="st10" d="M235.4,339.2c1.6,1.3,2.4,3.2,2.4,5.5s-0.8,4.2-2.4,5.5c-1.6,1.3-3.8,2-6.6,2H223v6.9h-2.3v-21.9h8.2
			C231.6,337.2,233.8,337.9,235.4,339.2z M233.8,348.7c1.1-0.9,1.7-2.3,1.7-4c0-1.8-0.6-3.1-1.7-4.1c-1.1-0.9-2.8-1.4-5-1.4H223
			v10.9h5.8C231,350.2,232.6,349.7,233.8,348.7z"/>
		<path class="st10" d="M271.8,337.2v21.9h-2.2v-17.5l-8.6,14.7h-1.1l-8.6-14.6v17.4H249v-21.9h1.9l9.5,16.2l9.4-16.2H271.8z"/>
		<path class="st10" d="M300.6,357.1v2h-15.5v-21.9h15v2h-12.7v7.8h11.3v2h-11.3v8.1H300.6z"/>
		<path class="st10" d="M330.6,337.2v21.9h-1.9l-14.1-17.8v17.8h-2.3v-21.9h1.9l14.1,17.8v-17.8H330.6z"/>
		<path class="st10" d="M348.2,339.2h-7.7v-2h17.7v2h-7.7v19.9h-2.3V339.2z"/>
	</g>
</g>
</svg>
